<svg width="303" height="49" viewBox="0 0 303 49" fill="none" xmlns="http://www.w3.org/2000/svg">
<path d="M172.974 22.6164C173.336 17.4027 169.893 12.7751 164.782 11.6092C162.033 10.9809 159.206 11.4642 156.819 12.9624C154.826 14.2129 153.346 16.0555 152.542 18.2244C152.059 17.2396 151.86 16.1341 151.986 15.0164C152.162 13.4699 152.929 12.0864 154.155 11.1077C156.378 9.33764 159.629 9.44638 161.719 11.3615L164.909 7.88169C161.06 4.35359 155.297 4.15422 151.195 7.42255C147.015 10.7573 146.048 16.6536 148.742 21.1181C146.132 20.5382 144.181 18.2062 144.181 15.4212C144.181 12.5758 146.296 10.1049 149.093 9.66387L148.362 5C143.202 5.80953 139.457 10.1895 139.457 15.4333C139.457 20.7859 143.462 25.2141 148.634 25.8907C147.782 26.5855 146.749 27.0205 145.631 27.1473C144.084 27.3225 142.562 26.8815 141.336 25.9028C139.113 24.1327 138.496 20.9369 139.898 18.4721L135.796 16.1341C133.21 20.6711 134.304 26.3378 138.4 29.6061C140.339 31.1527 142.659 31.9018 144.967 31.9018C147.637 31.9018 150.283 30.8929 152.295 28.9476C152.313 31.6179 150.476 34.0465 147.752 34.6687C144.979 35.303 142.097 33.7927 141.046 31.1587L136.66 32.9107C138.291 37.0007 142.175 39.544 146.416 39.544C147.208 39.544 148.011 39.4534 148.815 39.2722C154.034 38.082 157.46 33.1886 156.964 27.9991C159.061 29.6484 159.816 32.6026 158.608 35.1158C157.375 37.6773 154.397 38.9882 151.684 38.1727L150.319 42.6915C151.346 42.9996 152.379 43.1507 153.4 43.1507C157.357 43.1507 161.067 40.9094 162.873 37.1577C164.093 34.6204 164.256 31.7568 163.326 29.0987C162.547 26.8755 161.085 25.0208 159.145 23.7582C160.215 23.5044 161.332 23.5588 162.396 23.9273C163.864 24.4408 165.048 25.4981 165.724 26.9117C166.957 29.4732 166.129 32.6207 163.797 34.2277L166.479 38.1122C170.781 35.146 172.249 29.5699 169.977 24.8456C168.757 22.3083 166.618 20.3992 163.954 19.4628C161.731 18.6835 159.369 18.6714 157.17 19.4024C157.641 18.4116 158.378 17.5659 159.333 16.9678C160.65 16.1401 162.208 15.8743 163.743 16.2247C166.516 16.859 168.455 19.4689 168.262 22.2962L172.974 22.6164Z" fill="#0076B3"/>
<path d="M2.89981 20.1636V31.195H0V17.0403H2.87565C3.97516 17.0403 4.44638 17.6021 4.88135 18.1398L10.7595 25.3651L16.6377 18.1398C17.0726 17.6021 17.5499 17.0403 18.6434 17.0403H21.519V31.201H18.6192V20.1636L11.9013 28.277H9.62375L2.89981 20.1636Z" fill="#0076B3"/>
<path d="M44.1134 31.195H40.9236L39.1233 27.6971H28.6961L26.8958 31.195H23.7301L29.5237 19.8313C30.4118 18.0733 31.4871 16.8288 33.9097 16.8288C36.3322 16.8288 37.3895 18.0733 38.2957 19.8313L44.1134 31.195ZM35.3777 20.4355C35.0696 19.8374 34.6709 19.4628 33.9097 19.4628C33.1424 19.4628 32.7498 19.8374 32.4417 20.4355L30.0433 25.0691H37.764L35.3777 20.4355Z" fill="#0076B3"/>
<path d="M58.2742 28.5489C60.0141 28.5489 60.5699 28.0112 60.5699 27.2259C60.5699 26.2713 59.718 25.8001 57.6942 25.631L50.8434 25.0933C47.6536 24.8456 45.7506 23.7038 45.7506 21.1C45.7506 18.0975 48.2758 17.0403 51.1938 17.0403H62.7024V19.6924H50.9219C49.5324 19.6924 48.7471 20.067 48.7471 21.0154C48.7471 21.8008 49.2847 22.2176 51.6046 22.4049L58.1231 22.9245C61.4579 23.1963 63.6086 24.2475 63.6086 27.105C63.6086 29.5034 62.0741 31.201 58.0808 31.201H45.6841V28.5489H58.2742Z" fill="#0076B3"/>
<path d="M66.2426 17.0403H77.8781C82.9467 17.0403 84.6866 19.4628 84.6866 24.1206C84.6866 28.7785 82.9467 31.201 77.8781 31.201H66.2426V17.0403ZM77.8781 19.9159H69.2028V28.3012H77.8781C81.2491 28.3012 81.666 26.8332 81.666 24.1206C81.666 21.4081 81.2491 19.9159 77.8781 19.9159Z" fill="#0076B3"/>
<path d="M105.91 31.195H102.72L100.92 27.6971H90.4863L88.686 31.195H85.5203L91.3139 19.8313C92.202 18.0733 93.2773 16.8288 95.6999 16.8288C98.1224 16.8288 99.1797 18.0733 100.086 19.8313L105.91 31.195ZM97.174 20.4355C96.8658 19.8374 96.4732 19.4628 95.7059 19.4628C94.9387 19.4628 94.546 19.8374 94.2379 20.4355L91.8395 25.0691H99.5603L97.174 20.4355Z" fill="#0076B3"/>
<path d="M108.084 17.0403H120.378C123.858 17.0403 126.009 18.611 126.009 21.4504C126.009 23.438 124.952 24.6583 123.109 25.196C124.909 25.776 125.695 26.9359 125.695 28.4039V31.201H122.632V28.3435C122.632 27.5581 122.197 26.5432 120.312 26.5432H111.039V31.201H108.078V17.0403H108.084ZM120.602 23.9092C122.42 23.9092 122.982 22.707 122.982 21.7766C122.982 20.8463 122.42 19.6441 120.602 19.6441H111.039V23.9092H120.602Z" fill="#0076B3"/>
<line x1="194.5" y1="2.18557e-08" x2="194.5" y2="49" stroke="#C4D6E0"/>
<path d="M228.763 10.7487V38H227.14L209.762 13.7692H209.602V38H207.939V10.7487H209.575L226.953 35.0061H227.113V10.7487H228.763ZM233.817 38V10.7487H248.986V12.2922H235.48V23.5893H248.174V25.1328H235.48V36.4565H249.305V38H233.817ZM257.596 38L250.104 10.7487H251.834L258.487 35.4319H258.647L265.194 10.7487H267.216L273.763 35.4319H273.923L280.576 10.7487H282.292L274.801 38H272.885L266.272 13.4765H266.125L259.512 38H257.596ZM299.092 17.5615C298.95 15.8672 298.258 14.4966 297.016 13.4498C295.783 12.4031 294.187 11.8797 292.226 11.8797C290.904 11.8797 289.729 12.1236 288.7 12.6115C287.671 13.0994 286.864 13.7648 286.278 14.6075C285.693 15.4502 285.4 16.4172 285.4 17.5083C285.4 18.2091 285.533 18.8433 285.799 19.4111C286.074 19.9699 286.46 20.4711 286.957 20.9147C287.454 21.3494 288.044 21.7308 288.727 22.059C289.41 22.3873 290.164 22.6756 290.989 22.9239L293.969 23.8022C294.989 24.1126 295.93 24.4719 296.79 24.88C297.66 25.288 298.414 25.7759 299.052 26.3437C299.7 26.9025 300.201 27.559 300.556 28.313C300.92 29.067 301.102 29.9364 301.102 30.921C301.102 32.3581 300.729 33.6444 299.984 34.7799C299.248 35.9153 298.196 36.8113 296.83 37.4677C295.473 38.1153 293.872 38.4391 292.027 38.4391C290.27 38.4391 288.74 38.1419 287.436 37.5476C286.141 36.9532 285.116 36.1282 284.362 35.0726C283.608 34.0081 283.182 32.7839 283.085 31.4001H284.788C284.877 32.5267 285.236 33.5025 285.866 34.3275C286.504 35.1436 287.352 35.7734 288.407 36.217C289.463 36.6605 290.669 36.8823 292.027 36.8823C293.49 36.8823 294.781 36.6339 295.899 36.1371C297.016 35.6315 297.89 34.9307 298.52 34.0347C299.15 33.1388 299.465 32.0964 299.465 30.9077C299.465 29.9497 299.239 29.1291 298.786 28.4461C298.334 27.763 297.664 27.1731 296.777 26.6763C295.899 26.1796 294.808 25.736 293.504 25.3457L290.323 24.3876C288.194 23.7401 286.567 22.8574 285.44 21.7397C284.322 20.6219 283.763 19.2292 283.763 17.5615C283.763 16.1599 284.136 14.918 284.881 13.8357C285.626 12.7446 286.638 11.8886 287.915 11.2676C289.201 10.6466 290.652 10.3362 292.266 10.3362C293.889 10.3362 295.322 10.6511 296.564 11.2809C297.806 11.9019 298.791 12.7579 299.518 13.849C300.245 14.9313 300.649 16.1688 300.729 17.5615H299.092Z" fill="#0065A1"/>
</svg>
